# xmcd
#
# Track frame offsets: 
#        150
#        21025
#        42495
#        59035
#        76715
#        101128
#        114748
#        132025
#        156095
#        178853
#        196045
#
# Disc length: 2819 seconds
#
# Revision: 3
# Processed by: cddbd v1.5.2PL0 Copyright (c) Steve Scherf et al.
# Submitted via: ExactAudioCopy v1.3
#
DISCID=8f0b010b
DTITLE=Corey Stevens - Blue Drops Of Rain
DYEAR=1995
DGENRE=Blues Rock
TTITLE0=Gone Too Long
TTITLE1=Blue Drops Of Rain
TTITLE2=Crosscut Saw
TTITLE3=I Got A Rich Man's Woman
TTITLE4=It's Over
TTITLE5=Back In Time
TTITLE6=I'll Play The Blues
TTITLE7=Lenny
TTITLE8=The Brothers
TTITLE9=Headshrinker
TTITLE10=Goin' Crazy
EXTD=
EXTT0=
EXTT1=
EXTT2=
EXTT3=
EXTT4=
EXTT5=
EXTT6=
EXTT7=
EXTT8=
EXTT9=
EXTT10=
PLAYORDER=
